# xmcd
#
# Track frame offsets: 
#        150
#        19075
#        33665
#        59377
#
# Disc length: 2328 seconds
#
# Revision: 0
# Processed by: cddbd v1.5.2PL0 Copyright (c) Steve Scherf et al.
# Submitted via: ExactAudioCopy v0.95b4
#
DISCID=2e091604
DTITLE=Billy Gilman - One Voice (Single)
DYEAR=1900
DGENRE=Country
TTITLE0=One Voice
TTITLE1=Warm and Fuzzy
TTITLE2=Til I Can Make It On My Own
TTITLE3=Video
EXTD=
EXTT0=
EXTT1=
EXTT2=
EXTT3=
PLAYORDER=
